<svg width="150" height="28" viewBox="0 0 150 28" fill="none" xmlns="http://www.w3.org/2000/svg">
<g clip-path="url(#clip0_746_858)">
<path d="M59.0385 25.7381L57.335 20.9315H47.0623L45.3725 25.7381H41.0586L49.8261 1.87701H54.5884L63.3197 25.7381H59.0403H59.0385ZM48.3761 17.2507H56.0298L52.2124 6.47924L48.3761 17.2507Z" fill="#231F20"/>
<path d="M78.8798 1.87701H82.6075V25.7381H78.8798V23.2837C77.4763 25.2152 75.4642 26.1809 72.8417 26.1809C70.4726 26.1809 68.4467 25.3123 66.769 23.5732C65.0897 21.8342 64.25 19.7153 64.25 17.2149C64.25 14.7145 65.0897 12.5684 66.769 10.8413C68.4484 9.11419 70.4726 8.25064 72.8417 8.25064C75.4642 8.25064 77.4763 9.20447 78.8798 11.1138V1.87701ZM69.5295 21.1205C70.564 22.1544 71.8641 22.6722 73.4296 22.6722C74.9952 22.6722 76.2935 22.1561 77.3298 21.1205C78.3643 20.0866 78.8833 18.7853 78.8833 17.2166C78.8833 15.6479 78.366 14.3483 77.3298 13.3127C76.2952 12.2789 74.9952 11.7611 73.4296 11.7611C71.8641 11.7611 70.5657 12.2789 69.5295 13.3127C68.495 14.3466 67.976 15.6479 67.976 17.2166C67.976 18.7853 68.4932 20.0866 69.5295 21.1205Z" fill="#231F20"/>
<path d="M103.684 11.8173C105.608 12.066 107.196 12.7967 108.444 14.0094C109.692 15.2221 110.318 16.8249 110.318 18.8194C110.318 21.0916 109.53 22.8817 107.954 24.1881C106.378 25.4945 104.463 26.1486 102.209 26.1486C100.414 26.1486 98.8161 25.7398 97.4126 24.9205C96.0092 24.1029 95.0195 22.9328 94.4453 21.4101L96.4471 20.2519C96.8385 21.4339 97.5402 22.3264 98.5524 22.9277C99.5645 23.5306 100.783 23.8304 102.209 23.8304C103.866 23.8304 105.228 23.3927 106.299 22.5172C107.368 21.6434 107.904 20.4103 107.904 18.8194C107.904 17.2286 107.373 15.9954 106.31 15.1216C105.246 14.2478 103.892 13.8084 102.246 13.8084V13.7743L102.211 13.8339H101.542L100.485 12.2397L106.489 4.12703H95.135V1.87701H109.284L109.301 4.13895L103.687 11.8173H103.684Z" fill="#231F20"/>
<path d="M120.843 10.3985C123.212 10.3985 125.157 11.1309 126.675 12.5974C128.192 14.0639 128.952 15.9545 128.952 18.2727C128.952 20.5908 128.194 22.4831 126.675 23.9479C125.155 25.4145 123.212 26.1469 120.843 26.1469C118.474 26.1469 116.529 25.4145 115.012 23.9479C113.495 22.4814 112.734 20.5908 112.734 18.2727C112.734 16.4774 113.229 14.8866 114.219 13.5001L122.121 1.87531H124.847L118.914 10.6028C119.535 10.4649 120.178 10.3967 120.845 10.3967L120.843 10.3985ZM116.719 22.2958C117.766 23.3177 119.14 23.8304 120.843 23.8304C122.547 23.8304 123.919 23.3194 124.968 22.2958C126.014 21.2738 126.538 19.9316 126.538 18.2727C126.538 16.6137 126.014 15.2732 124.968 14.2495C123.921 13.2276 122.547 12.7149 120.843 12.7149C119.14 12.7149 117.766 13.2259 116.719 14.2495C115.672 15.2715 115.148 16.6137 115.148 18.2727C115.148 19.9316 115.671 21.2721 116.719 22.2958Z" fill="#231F20"/>
<path d="M147.601 22.7897C146.001 25.0278 143.754 26.1469 140.856 26.1469C137.958 26.1469 135.708 25.0278 134.109 22.7897C132.509 20.5516 131.711 17.5573 131.711 13.8067C131.711 10.0561 132.509 7.06346 134.109 4.82366C135.708 2.58557 137.956 1.46652 140.856 1.46652C143.756 1.46652 146.003 2.58557 147.601 4.82366C149.199 7.06175 149.999 10.0561 149.999 13.8067C149.999 17.5573 149.199 20.5499 147.601 22.7897ZM135.902 21.2057C137.087 22.9566 138.737 23.8304 140.854 23.8304C142.972 23.8304 144.622 22.9566 145.806 21.2057C146.991 19.4564 147.584 16.9901 147.584 13.8084C147.584 10.6267 146.991 8.16206 145.806 6.41111C144.622 4.66185 142.97 3.78637 140.854 3.78637C138.739 3.78637 137.087 4.66185 135.902 6.41111C134.718 8.16206 134.125 10.6267 134.125 13.8084C134.125 16.9901 134.716 19.4564 135.902 21.2057Z" fill="#231F20"/>
<path d="M30.8128 27.9505L16.1795 23.7128L1.54624 27.9505C1.24278 28.0374 0.951395 28.0068 0.704835 27.8943C0.108262 27.6201 -0.221059 26.8724 0.163437 26.2132L7.41886 13.7998L15.1364 0.594376C15.6002 -0.199346 16.7606 -0.199346 17.2226 0.594376L24.9384 13.7964L32.1939 26.2098C32.737 27.1398 31.8542 28.2503 30.811 27.9488L30.8128 27.9505Z" fill="url(#paint0_linear_746_858)"/>
<path d="M23.4163 11.1922L20.3938 16.365L16.1798 23.5749L11.9659 16.365L8.94336 11.1922L10.1313 9.15676L15.1367 0.594437C15.6005 -0.199285 16.7609 -0.199285 17.223 0.594437L22.2266 9.15676L23.4146 11.1922H23.4163Z" fill="url(#paint1_linear_746_858)"/>
<path opacity="0.45" d="M15.1366 0.594452L0.706788 27.8927C0.110215 27.6185 -0.219106 26.8707 0.16539 26.2116L7.42081 13.7982L15.1366 0.594452Z" fill="white"/>
<path opacity="0.1" d="M9.49102 11.2773L16.1792 23.144L23.2794 10.9435L23.4156 11.1922L16.1809 23.7129L9.29102 11.7866L9.49102 11.2773Z" fill="white"/>
</g>
<defs>
<linearGradient id="paint0_linear_746_858" x1="13.2294" y1="13.9838" x2="15.1111" y2="22.3618" gradientUnits="userSpaceOnUse">
<stop stop-color="#079DF4"/>
<stop offset="1" stop-color="#0F6EFD"/>
</linearGradient>
<linearGradient id="paint1_linear_746_858" x1="11.0107" y1="-3.06929" x2="20.6818" y2="24.2665" gradientUnits="userSpaceOnUse">
<stop stop-color="#2277FF"/>
<stop offset="1" stop-color="#00CEF6"/>
</linearGradient>
<clipPath id="clip0_746_858">
<rect width="150" height="28" fill="white"/>
</clipPath>
</defs>
</svg>
