<svg width="150" height="28" viewBox="0 0 150 28" fill="none" xmlns="http://www.w3.org/2000/svg">
<g clip-path="url(#clip0_756_865)">
<path d="M59.0385 25.738L57.335 20.9314H47.0623L45.3725 25.738H41.0586L49.8261 1.87695H54.5884L63.3197 25.738H59.0403H59.0385ZM48.3761 17.2506H56.0298L52.2124 6.47918L48.3761 17.2506Z" fill="white"/>
<path d="M78.8798 1.87695H82.6075V25.738H78.8798V23.2836C77.4763 25.2151 75.4642 26.1809 72.8417 26.1809C70.4726 26.1809 68.4467 25.3122 66.769 23.5732C65.0897 21.8341 64.25 19.7153 64.25 17.2149C64.25 14.7145 65.0897 12.5684 66.769 10.8412C68.4484 9.11413 70.4726 8.25058 72.8417 8.25058C75.4642 8.25058 77.4763 9.20441 78.8798 11.1138V1.87695ZM69.5295 21.1205C70.564 22.1543 71.8641 22.6721 73.4296 22.6721C74.9952 22.6721 76.2935 22.156 77.3298 21.1205C78.3643 20.0866 78.8833 18.7853 78.8833 17.2166C78.8833 15.6479 78.366 14.3483 77.3298 13.3127C76.2952 12.2788 74.9952 11.761 73.4296 11.761C71.8641 11.761 70.5657 12.2788 69.5295 13.3127C68.495 14.3466 67.976 15.6479 67.976 17.2166C67.976 18.7853 68.4932 20.0866 69.5295 21.1205Z" fill="white"/>
<path d="M103.684 11.8172C105.608 12.0659 107.196 12.7966 108.444 14.0093C109.692 15.222 110.318 16.8248 110.318 18.8193C110.318 21.0915 109.53 22.8816 107.954 24.188C106.378 25.4944 104.463 26.1485 102.209 26.1485C100.414 26.1485 98.8161 25.7397 97.4126 24.9204C96.0092 24.1029 95.0195 22.9327 94.4453 21.41L96.4471 20.2518C96.8385 21.4339 97.5402 22.3264 98.5524 22.9276C99.5645 23.5306 100.783 23.8304 102.209 23.8304C103.866 23.8304 105.228 23.3926 106.299 22.5171C107.368 21.6434 107.904 20.4102 107.904 18.8193C107.904 17.2285 107.373 15.9953 106.31 15.1216C105.246 14.2478 103.892 13.8083 102.246 13.8083V13.7743L102.211 13.8339H101.542L100.485 12.2396L106.489 4.12697H95.135V1.87695H109.284L109.301 4.13889L103.687 11.8172H103.684Z" fill="white"/>
<path d="M120.843 10.3991C123.212 10.3991 125.157 11.1315 126.675 12.598C128.192 14.0646 128.952 15.9552 128.952 18.2733C128.952 20.5915 128.194 22.4838 126.675 23.9486C125.155 25.4151 123.212 26.1475 120.843 26.1475C118.474 26.1475 116.529 25.4151 115.012 23.9486C113.495 22.4821 112.734 20.5915 112.734 18.2733C112.734 16.4781 113.229 14.8872 114.219 13.5008L122.121 1.87598H124.847L118.914 10.6035C119.535 10.4655 120.178 10.3974 120.845 10.3974L120.843 10.3991ZM116.719 22.2964C117.766 23.3184 119.14 23.8311 120.843 23.8311C122.547 23.8311 123.919 23.3201 124.968 22.2964C126.014 21.2745 126.538 19.9323 126.538 18.2733C126.538 16.6143 126.014 15.2739 124.968 14.2502C123.921 13.2282 122.547 12.7156 120.843 12.7156C119.14 12.7156 117.766 13.2265 116.719 14.2502C115.672 15.2722 115.148 16.6143 115.148 18.2733C115.148 19.9323 115.671 21.2728 116.719 22.2964Z" fill="white"/>
<path d="M147.601 22.79C146.001 25.0281 143.754 26.1471 140.856 26.1471C137.958 26.1471 135.708 25.0281 134.109 22.79C132.509 20.5519 131.711 17.5576 131.711 13.807C131.711 10.0564 132.509 7.06373 134.109 4.82394C135.708 2.58584 137.956 1.4668 140.856 1.4668C143.756 1.4668 146.003 2.58584 147.601 4.82394C149.199 7.06203 149.999 10.0564 149.999 13.807C149.999 17.5576 149.199 20.5502 147.601 22.79ZM135.902 21.206C137.087 22.9569 138.737 23.8307 140.854 23.8307C142.972 23.8307 144.622 22.9569 145.806 21.206C146.991 19.4567 147.584 16.9904 147.584 13.8087C147.584 10.627 146.991 8.16234 145.806 6.41138C144.622 4.66212 142.97 3.78665 140.854 3.78665C138.739 3.78665 137.087 4.66212 135.902 6.41138C134.718 8.16234 134.125 10.627 134.125 13.8087C134.125 16.9904 134.716 19.4567 135.902 21.206Z" fill="white"/>
<path d="M30.8128 27.9505L16.1795 23.7128L1.54624 27.9505C1.24278 28.0373 0.951395 28.0067 0.704835 27.8943C0.108262 27.62 -0.221059 26.8723 0.163437 26.2131L7.41886 13.7997L15.1364 0.594315C15.6002 -0.199407 16.7606 -0.199407 17.2226 0.594315L24.9384 13.7963L32.1939 26.2097C32.737 27.1397 31.8542 28.2503 30.811 27.9488L30.8128 27.9505Z" fill="url(#paint0_linear_756_865)"/>
<path d="M23.4163 11.192L20.3938 16.3649L16.1798 23.5748L11.9659 16.3649L8.94336 11.192L10.1313 9.15664L15.1367 0.594315C15.6005 -0.199407 16.7609 -0.199407 17.223 0.594315L22.2266 9.15664L23.4146 11.192H23.4163Z" fill="url(#paint1_linear_756_865)"/>
<path opacity="0.45" d="M15.1366 0.594727L0.706788 27.893C0.110215 27.6188 -0.219106 26.871 0.16539 26.2119L7.42081 13.7985L15.1366 0.594727Z" fill="white"/>
<path opacity="0.1" d="M9.49102 11.2772L16.1792 23.1439L23.2794 10.9434L23.4156 11.192L16.1809 23.7127L9.29102 11.7865L9.49102 11.2772Z" fill="white"/>
</g>
<defs>
<linearGradient id="paint0_linear_756_865" x1="13.2294" y1="13.9837" x2="15.1111" y2="22.3618" gradientUnits="userSpaceOnUse">
<stop stop-color="#079DF4"/>
<stop offset="1" stop-color="#0F6EFD"/>
</linearGradient>
<linearGradient id="paint1_linear_756_865" x1="11.0107" y1="-3.06941" x2="20.6818" y2="24.2664" gradientUnits="userSpaceOnUse">
<stop stop-color="#2277FF"/>
<stop offset="1" stop-color="#00CEF6"/>
</linearGradient>
<clipPath id="clip0_756_865">
<rect width="150" height="28" fill="white"/>
</clipPath>
</defs>
</svg>
