<svg width="49" height="49" viewBox="0 0 49 49" fill="none" xmlns="http://www.w3.org/2000/svg">
<path fill-rule="evenodd" clip-rule="evenodd" d="M48.251 24.4999C48.251 37.6166 37.6177 48.2499 24.501 48.2499C11.3842 48.2499 0.750977 37.6166 0.750977 24.4999C0.750977 11.3831 11.3842 0.749878 24.501 0.749878C37.6177 0.749878 48.251 11.3831 48.251 24.4999ZM34.073 17.3028C34.7686 17.9985 34.7686 19.1263 34.073 19.8219L22.198 31.6969C21.5024 32.3925 20.3746 32.3925 19.6789 31.6969L14.9289 26.9469C14.2333 26.2513 14.2333 25.1235 14.9289 24.4278C15.6246 23.7322 16.7524 23.7322 17.448 24.4278L20.9385 27.9183L26.2462 22.6106L31.5539 17.3028C32.2496 16.6072 33.3774 16.6072 34.073 17.3028Z" fill="url(#paint0_linear_541_539)"/>
<defs>
<linearGradient id="paint0_linear_541_539" x1="49.1272" y1="9.38615" x2="0.555887" y2="9.71746" gradientUnits="userSpaceOnUse">
<stop stop-color="#009D68"/>
<stop offset="1" stop-color="#00D38C"/>
</linearGradient>
</defs>
</svg>
