<svg width="24" height="24" viewBox="0 0 24 24" fill="none" xmlns="http://www.w3.org/2000/svg">
<path fill-rule="evenodd" clip-rule="evenodd" d="M0 2.4C0 1.07452 1.07452 0 2.4 0H21.6C22.9255 0 24 1.07452 24 2.4V21.6C24 22.9255 22.9255 24 21.6 24H2.4C1.07452 24 0 22.9255 0 21.6V2.4ZM8 8H6.4V6.4H8V8ZM6.4 17.6V9.6H8V17.6H6.4ZM13.6 11.2C12.2745 11.2 11.2 12.2745 11.2 13.6V17.6H9.6V9.6H11.2V10.3997C11.8685 9.89756 12.6995 9.6 13.6 9.6C15.8091 9.6 17.6 11.3909 17.6 13.6V17.6H16V13.6C16 12.2745 14.9255 11.2 13.6 11.2Z" fill="white"/>
</svg>
