<?xml version="1.0" encoding="UTF-8"?>
<svg id="Layer_1" data-name="Layer 1" xmlns="http://www.w3.org/2000/svg" viewBox="0 0 114.48 52.94">
  <defs>
    <style>
      .cls-1 {
        stroke: #4285f4;
      }

      .cls-1, .cls-2, .cls-3, .cls-4 {
        fill: none;
        stroke-miterlimit: 10;
        stroke-width: .25px;
      }

      .cls-2 {
        stroke: #fbbc05;
      }

      .cls-5 {
        fill: #757575;
      }

      .cls-5, .cls-6, .cls-7, .cls-8, .cls-9, .cls-10 {
        stroke-width: 0px;
      }

      .cls-6 {
        fill: #fbbc05;
      }

      .cls-7 {
        fill: #34a853;
      }

      .cls-8 {
        fill: #4285f4;
      }

      .cls-9 {
        fill: #ea4335;
      }

      .cls-3 {
        stroke: #ea4335;
      }

      .cls-4 {
        stroke: #34a853;
      }

      .cls-11 {
        isolation: isolate;
      }

      .cls-10 {
        fill: #fff;
      }
    </style>
  </defs>
  <g>
    <g class="cls-11">
      <g class="cls-11">
        <path class="cls-8" d="M36.14,14.05c0,1.61-.47,2.89-1.42,3.84-1.06,1.14-2.46,1.7-4.19,1.7s-3.06-.58-4.2-1.74c-1.15-1.16-1.72-2.58-1.72-4.28s.57-3.12,1.72-4.28,2.55-1.74,4.2-1.74c.84,0,1.63.15,2.37.45.74.3,1.35.72,1.83,1.27l-1.05,1.06c-.35-.43-.8-.76-1.36-1-.56-.24-1.15-.36-1.79-.36-1.24,0-2.29.43-3.15,1.3-.85.88-1.27,1.98-1.27,3.3s.42,2.42,1.27,3.3c.86.87,1.91,1.3,3.15,1.3,1.14,0,2.08-.32,2.83-.96.75-.64,1.19-1.53,1.31-2.65h-4.14v-1.38h5.52c.05.3.08.59.08.87Z"/>
      </g>
      <g class="cls-11">
        <path class="cls-1" d="M36.14,14.05c0,1.61-.47,2.89-1.42,3.84-1.06,1.14-2.46,1.7-4.19,1.7s-3.06-.58-4.2-1.74c-1.15-1.16-1.72-2.58-1.72-4.28s.57-3.12,1.72-4.28,2.55-1.74,4.2-1.74c.84,0,1.63.15,2.37.45.74.3,1.35.72,1.83,1.27l-1.05,1.06c-.35-.43-.8-.76-1.36-1-.56-.24-1.15-.36-1.79-.36-1.24,0-2.29.43-3.15,1.3-.85.88-1.27,1.98-1.27,3.3s.42,2.42,1.27,3.3c.86.87,1.91,1.3,3.15,1.3,1.14,0,2.08-.32,2.83-.96.75-.64,1.19-1.53,1.31-2.65h-4.14v-1.38h5.52c.05.3.08.59.08.87Z"/>
      </g>
      <g class="cls-11">
        <path class="cls-9" d="M37.4,15.4c0-1.21.38-2.21,1.13-3.01.76-.79,1.72-1.19,2.88-1.19s2.11.4,2.87,1.19c.76.79,1.15,1.8,1.15,3.01s-.38,2.22-1.15,3.01c-.75.79-1.71,1.19-2.87,1.19s-2.12-.4-2.88-1.19c-.75-.79-1.13-1.8-1.13-3.01ZM38.86,15.4c0,.85.24,1.53.73,2.06s1.09.79,1.81.79,1.33-.26,1.82-.79c.49-.53.73-1.21.73-2.06s-.24-1.52-.73-2.04c-.5-.54-1.1-.8-1.82-.8s-1.32.27-1.81.8c-.49.53-.73,1.21-.73,2.04Z"/>
      </g>
      <g class="cls-11">
        <path class="cls-3" d="M37.4,15.4c0-1.21.38-2.21,1.13-3.01.76-.79,1.72-1.19,2.88-1.19s2.11.4,2.87,1.19c.76.79,1.15,1.8,1.15,3.01s-.38,2.22-1.15,3.01c-.75.79-1.71,1.19-2.87,1.19s-2.12-.4-2.88-1.19c-.75-.79-1.13-1.8-1.13-3.01ZM38.86,15.4c0,.85.24,1.53.73,2.06s1.09.79,1.81.79,1.33-.26,1.82-.79c.49-.53.73-1.21.73-2.06s-.24-1.52-.73-2.04c-.5-.54-1.1-.8-1.82-.8s-1.32.27-1.81.8c-.49.53-.73,1.21-.73,2.04Z"/>
      </g>
      <g class="cls-11">
        <path class="cls-6" d="M46.49,15.4c0-1.21.38-2.21,1.13-3.01.76-.79,1.72-1.19,2.88-1.19s2.11.4,2.87,1.19c.76.79,1.15,1.8,1.15,3.01s-.38,2.22-1.15,3.01c-.75.79-1.71,1.19-2.87,1.19s-2.12-.4-2.88-1.19c-.75-.79-1.13-1.8-1.13-3.01ZM47.96,15.4c0,.85.24,1.53.73,2.06s1.09.79,1.81.79,1.33-.26,1.82-.79c.49-.53.73-1.21.73-2.06s-.24-1.52-.73-2.04c-.5-.54-1.1-.8-1.82-.8s-1.32.27-1.81.8c-.49.53-.73,1.21-.73,2.04Z"/>
      </g>
      <g class="cls-11">
        <path class="cls-2" d="M46.49,15.4c0-1.21.38-2.21,1.13-3.01.76-.79,1.72-1.19,2.88-1.19s2.11.4,2.87,1.19c.76.79,1.15,1.8,1.15,3.01s-.38,2.22-1.15,3.01c-.75.79-1.71,1.19-2.87,1.19s-2.12-.4-2.88-1.19c-.75-.79-1.13-1.8-1.13-3.01ZM47.96,15.4c0,.85.24,1.53.73,2.06s1.09.79,1.81.79,1.33-.26,1.82-.79c.49-.53.73-1.21.73-2.06s-.24-1.52-.73-2.04c-.5-.54-1.1-.8-1.82-.8s-1.32.27-1.81.8c-.49.53-.73,1.21-.73,2.04Z"/>
      </g>
      <g class="cls-11">
        <path class="cls-8" d="M59.49,23.07c-.44,0-.84-.06-1.23-.17-.38-.11-.73-.27-1.04-.47-.31-.2-.58-.44-.81-.72-.22-.28-.39-.59-.51-.93l1.39-.58c.16.46.43.83.83,1.11.39.28.85.42,1.37.42.79,0,1.42-.24,1.86-.72.45-.48.67-1.15.67-1.99v-.76h-.06c-.28.42-.65.75-1.12.99-.47.24-.98.36-1.54.36-1.02,0-1.89-.4-2.63-1.21-.72-.83-1.08-1.82-1.08-2.99s.36-2.16,1.08-2.97c.73-.81,1.61-1.22,2.63-1.22.55,0,1.06.12,1.54.36.47.24.85.57,1.12.99h.06v-1.09h1.4v7.54c0,1.26-.35,2.26-1.07,2.97-.72.73-1.68,1.09-2.86,1.09ZM59.53,18.25c.72,0,1.31-.26,1.77-.79.48-.53.72-1.21.72-2.06s-.24-1.51-.72-2.04c-.47-.54-1.06-.8-1.77-.8s-1.29.27-1.77.8c-.48.54-.72,1.22-.72,2.04s.24,1.52.72,2.04c.48.54,1.07.8,1.77.8Z"/>
      </g>
      <g class="cls-11">
        <path class="cls-1" d="M59.49,23.07c-.44,0-.84-.06-1.23-.17-.38-.11-.73-.27-1.04-.47-.31-.2-.58-.44-.81-.72-.22-.28-.39-.59-.51-.93l1.39-.58c.16.46.43.83.83,1.11.39.28.85.42,1.37.42.79,0,1.42-.24,1.86-.72.45-.48.67-1.15.67-1.99v-.76h-.06c-.28.42-.65.75-1.12.99-.47.24-.98.36-1.54.36-1.02,0-1.89-.4-2.63-1.21-.72-.83-1.08-1.82-1.08-2.99s.36-2.16,1.08-2.97c.73-.81,1.61-1.22,2.63-1.22.55,0,1.06.12,1.54.36.47.24.85.57,1.12.99h.06v-1.09h1.4v7.54c0,1.26-.35,2.26-1.07,2.97-.72.73-1.68,1.09-2.86,1.09ZM59.53,18.25c.72,0,1.31-.26,1.77-.79.48-.53.72-1.21.72-2.06s-.24-1.51-.72-2.04c-.47-.54-1.06-.8-1.77-.8s-1.29.27-1.77.8c-.48.54-.72,1.22-.72,2.04s.24,1.52.72,2.04c.48.54,1.07.8,1.77.8Z"/>
      </g>
      <g class="cls-11">
        <path class="cls-7" d="M66.84,7.83v11.51h-1.46V7.83h1.46Z"/>
      </g>
      <g class="cls-11">
        <path class="cls-4" d="M66.84,7.83v11.51h-1.46V7.83h1.46Z"/>
      </g>
    </g>
    <g class="cls-11">
      <g class="cls-11">
        <path class="cls-9" d="M72.49,19.74c-1.1.19-2.07-.04-2.91-.67-.84-.63-1.36-1.52-1.55-2.67-.19-1.14,0-2.15.56-3.02.56-.88,1.38-1.4,2.46-1.59,1.11-.19,2.05.02,2.83.63s1.28,1.56,1.49,2.85v.16s-5.86.99-5.86.99c.14.73.49,1.28,1.03,1.65.54.37,1.14.5,1.79.39.89-.15,1.52-.72,1.88-1.7l1.35.4c-.23.69-.61,1.26-1.15,1.72-.54.46-1.18.75-1.93.88ZM69.42,15.23l4.29-.73c-.13-.51-.41-.91-.85-1.18-.44-.28-.98-.36-1.62-.25-.53.09-.96.33-1.28.72-.33.39-.5.87-.53,1.44Z"/>
      </g>
      <g class="cls-11">
        <path class="cls-3" d="M72.49,19.74c-1.1.19-2.07-.04-2.91-.67-.84-.63-1.36-1.52-1.55-2.67-.19-1.14,0-2.15.56-3.02.56-.88,1.38-1.4,2.46-1.59,1.11-.19,2.05.02,2.83.63s1.28,1.56,1.49,2.85v.16s-5.86.99-5.86.99c.14.73.49,1.28,1.03,1.65.54.37,1.14.5,1.79.39.89-.15,1.52-.72,1.88-1.7l1.35.4c-.23.69-.61,1.26-1.15,1.72-.54.46-1.18.75-1.93.88ZM69.42,15.23l4.29-.73c-.13-.51-.41-.91-.85-1.18-.44-.28-.98-.36-1.62-.25-.53.09-.96.33-1.28.72-.33.39-.5.87-.53,1.44Z"/>
      </g>
    </g>
  </g>
  <g class="cls-11">
    <g class="cls-11">
      <path class="cls-5" d="M27.37,36.45v8.19h-2.57v-20.22h6.82c1.73,0,3.21.58,4.42,1.75,1.23,1.17,1.85,2.59,1.85,4.26s-.62,3.14-1.85,4.29c-1.19,1.15-2.67,1.72-4.42,1.72h-4.25ZM27.37,26.91v7.06h4.31c1.02,0,1.87-.35,2.54-1.05.69-.7,1.03-1.52,1.03-2.48s-.35-1.76-1.03-2.46c-.67-.72-1.52-1.07-2.54-1.07h-4.31Z"/>
      <path class="cls-5" d="M45.04,30.35c1.9,0,3.4.51,4.5,1.54,1.1,1.03,1.65,2.43,1.65,4.22v8.53h-2.46v-1.92h-.11c-1.06,1.58-2.48,2.37-4.25,2.37-1.51,0-2.77-.45-3.79-1.36-1.02-.9-1.52-2.03-1.52-3.39,0-1.43.54-2.57,1.61-3.42,1.07-.85,2.5-1.27,4.29-1.27,1.53,0,2.79.28,3.77.85v-.59c0-.9-.35-1.67-1.06-2.3-.71-.63-1.54-.95-2.49-.95-1.44,0-2.57.61-3.41,1.84l-2.26-1.44c1.25-1.81,3.09-2.71,5.54-2.71ZM41.71,40.4c0,.68.28,1.24.85,1.69.57.45,1.23.68,2,.68,1.08,0,2.05-.4,2.89-1.21.85-.81,1.27-1.76,1.27-2.85-.8-.64-1.92-.96-3.35-.96-1.04,0-1.91.25-2.61.76-.7.51-1.05,1.14-1.05,1.89Z"/>
      <path class="cls-5" d="M54.37,30.8h2.46v2.26h.11c.76-1.77,2.34-2.65,4.72-2.65l.53.06v2.71l-1.15-.11c-1.19,0-2.18.37-2.95,1.12s-1.16,1.69-1.16,2.84v7.62h-2.57v-13.84ZM70.42,44.87c-1.12,0-2.05-.35-2.78-1.05-.74-.7-1.11-1.67-1.13-2.91v-7.74h-2.4v-2.37h2.4v-4.24h2.57v4.24h3.36v2.37h-3.36v6.89c0,.92.18,1.55.53,1.88.35.33.75.49,1.2.49.2,0,.41-.02.6-.07.2-.05.38-.11.55-.18l.81,2.32c-.67.24-1.45.37-2.35.37Z"/>
      <path class="cls-5" d="M75.31,30.8h2.46v1.92h.11c.39-.68.99-1.24,1.8-1.69.81-.45,1.65-.68,2.53-.68,1.68,0,2.97.49,3.87,1.45.9.97,1.36,2.35,1.36,4.14v8.7h-2.57v-8.53c-.06-2.26-1.18-3.39-3.38-3.39-1.03,0-1.88.42-2.57,1.26-.69.84-1.03,1.84-1.03,3.01v7.65h-2.57v-13.84Z"/>
      <path class="cls-5" d="M96.9,45.09c-2.01,0-3.67-.7-4.98-2.09-1.31-1.39-1.96-3.15-1.96-5.28s.63-3.86,1.9-5.27c1.27-1.4,2.89-2.1,4.86-2.1s3.65.66,4.85,1.99c1.2,1.33,1.8,3.19,1.8,5.58l-.03.28h-10.76c.04,1.36.48,2.45,1.34,3.28.86.83,1.88,1.24,3.07,1.24,1.64,0,2.93-.83,3.86-2.49l2.29,1.13c-.61,1.17-1.47,2.08-2.56,2.74s-2.32.99-3.7.99ZM92.79,36.05h7.86c-.08-.96-.46-1.76-1.16-2.39s-1.63-.95-2.81-.95c-.97,0-1.8.3-2.5.9s-1.16,1.41-1.38,2.43Z"/>
      <path class="cls-5" d="M108.58,44.64h-2.57v-13.84h2.46v2.26h.11c.26-.73.8-1.36,1.61-1.88.81-.52,1.61-.78,2.39-.78s1.38.11,1.9.34l-.78,2.51c-.32-.13-.82-.2-1.51-.2-.97,0-1.81.4-2.53,1.19-.72.79-1.08,1.71-1.08,2.77v7.62Z"/>
    </g>
  </g>
  <rect class="cls-9" width="14.4" height="52.94"/>
  <g class="cls-11">
    <g class="cls-11">
      <path class="cls-10" d="M8.02,42.42h1.98v.62h-4.9v-1.65c0-.42.14-.78.42-1.07.28-.3.63-.45,1.03-.45s.76.15,1.04.45c.28.29.42.65.42,1.07v1.03ZM5.71,42.42h1.71v-1.04c0-.25-.08-.45-.25-.62-.17-.17-.37-.25-.6-.25s-.43.08-.59.25c-.17.16-.26.37-.26.62v1.04Z"/>
      <path class="cls-10" d="M10.01,37.32v.62h-4.9v-1.65c0-.42.14-.78.42-1.07.28-.3.63-.44,1.04-.44.34,0,.64.11.9.33.26.22.43.5.5.83h.02s1.99-1.35,1.99-1.35h.03v.74l-1.98,1.31v.69h1.98ZM5.71,37.32h1.72v-1c0-.25-.08-.47-.25-.64-.17-.18-.37-.26-.62-.26-.23,0-.43.08-.6.25s-.26.37-.26.62v1.04Z"/>
      <path class="cls-10" d="M5.11,29.91h.6v2.21h1.55v-1.99h.59v1.99h1.55v-2.21h.6v2.83h-4.9v-2.83Z"/>
      <path class="cls-10" d="M10.01,27.17v.62h-4.9v-.62l2.98-1.68v-.03l-2.98-1.69v-.62h4.9v.62h-2.91l-.82-.03v.03l2.69,1.52v.37l-2.69,1.52v.03l.82-.03h2.91Z"/>
      <path class="cls-10" d="M10.01,20.26v.62h-4.9v-.62h4.9Z"/>
      <path class="cls-10" d="M5.11,15.17h.6v2.21h1.55v-1.99h.59v1.99h1.55v-2.21h.6v2.83h-4.9v-2.83Z"/>
      <path class="cls-10" d="M10.01,12.42v.62h-4.9v-1.65c0-.42.14-.78.42-1.07.28-.3.63-.44,1.04-.44.34,0,.64.11.9.33s.43.5.5.83h.02s1.99-1.35,1.99-1.35h.03v.74l-1.98,1.31v.69h1.98ZM5.71,12.42h1.72v-1c0-.25-.08-.47-.25-.64s-.37-.26-.62-.26c-.23,0-.43.08-.6.25-.17.17-.26.37-.26.62v1.04Z"/>
    </g>
  </g>
</svg>