<svg width="24" height="24" viewBox="0 0 24 24" fill="none" xmlns="http://www.w3.org/2000/svg">
<path fill-rule="evenodd" clip-rule="evenodd" d="M2.4 0C1.07452 0 0 1.07452 0 2.4V21.6C0 22.9255 1.07452 24 2.4 24H21.6C22.9255 24 24 22.9255 24 21.6V2.4C24 1.07452 22.9255 0 21.6 0H2.4ZM20.75 9.5C20.7506 8.59635 20.4084 7.7261 19.7925 7.06491C19.1765 6.40371 18.3327 6.0008 17.4313 5.9375C13.825 5.75 10.1625 5.75 6.58125 5.925C4.81875 5.925 3.25 7.625 3.25 9.5C3.06825 11.3121 3.06825 13.1379 3.25 14.95C3.24832 15.8286 3.59447 16.6722 4.21281 17.2964C4.83115 17.9206 5.67141 18.2746 6.55 18.2812C8.3625 18.3813 10.1792 18.4313 12 18.4313C13.8208 18.4313 15.6271 18.3833 17.4188 18.2875C18.2942 18.286 19.1341 17.9405 19.7572 17.3255C20.3803 16.7106 20.7369 15.8754 20.75 15C21.006 13.1756 21.006 11.3244 20.75 9.5ZM19.5 14.8937C19.4969 14.9187 19.4969 14.9438 19.5 14.9688C19.4984 15.2451 19.4422 15.5183 19.3348 15.7729C19.2273 16.0275 19.0707 16.2583 18.8739 16.4522C18.6771 16.6462 18.4439 16.7993 18.1878 16.903C17.9316 17.0066 17.6576 17.0587 17.3813 17.0562C13.7837 17.2438 10.1788 17.2438 6.58125 17.0562C6.3028 17.0538 6.0276 16.9961 5.77168 16.8863C5.51576 16.7766 5.28423 16.617 5.09055 16.4169C4.89687 16.2169 4.74492 15.9803 4.64354 15.7209C4.54215 15.4616 4.49336 15.1846 4.5 14.9062C4.32162 13.1462 4.32162 11.3726 4.5 9.6125C4.50281 9.58967 4.50281 9.56658 4.5 9.54375C4.49516 8.9571 4.70876 8.38964 5.09923 7.9518C5.48971 7.51396 6.02913 7.23706 6.6125 7.175C8.4 7.09375 10.2 7.05625 12 7.05625C13.8 7.05625 15.6 7.09375 17.3875 7.175H17.4188C18.4875 7.175 19.5 8.325 19.5 9.54375C19.4969 9.57492 19.4969 9.60633 19.5 9.6375C19.7447 11.3769 19.7447 13.1419 19.5 14.8813V14.8937ZM10.5312 9.39375L14.9938 11.6938C15.0922 11.749 15.1738 11.83 15.2299 11.9279C15.286 12.0258 15.3146 12.1371 15.3125 12.25C15.3127 12.3648 15.2814 12.4774 15.2218 12.5755C15.1623 12.6736 15.0769 12.7535 14.975 12.8063L10.5125 15.1313C10.4235 15.1768 10.325 15.2004 10.225 15.2C10.0592 15.2 9.90027 15.1342 9.78306 15.0169C9.66585 14.8997 9.6 14.7408 9.6 14.575V12.25C9.6 12.0842 9.66585 11.9253 9.78306 11.8081C9.90027 11.6908 10.0592 11.625 10.225 11.625C10.3908 11.625 10.5497 11.6908 10.6669 11.8081C10.7842 11.9253 10.85 12.0842 10.85 12.25V13.5437L13.35 12.25L9.95625 10.5063C9.8832 10.4685 9.81831 10.4167 9.76527 10.3539C9.71223 10.2911 9.67208 10.2184 9.64713 10.14C9.62217 10.0617 9.61289 9.97919 9.61982 9.89725C9.62675 9.81532 9.64975 9.73555 9.6875 9.6625C9.72526 9.58945 9.77703 9.52456 9.83986 9.47152C9.9027 9.41848 9.97537 9.37833 10.0537 9.35338C10.1321 9.32842 10.2146 9.31914 10.2965 9.32607C10.3784 9.333 10.4582 9.356 10.5312 9.39375Z" fill="white"/>
</svg>
